<?xml version="1.0" encoding="utf-8"?>
<!-- Generator: Adobe Illustrator 21.1.0, SVG Export Plug-In . SVG Version: 6.00 Build 0)  -->
<svg version="1.1" id="Layer_1" xmlns="http://www.w3.org/2000/svg" xmlns:xlink="http://www.w3.org/1999/xlink" x="0px" y="0px"
	 viewBox="0 0 256 256" style="enable-background:new 0 0 256 256;" xml:space="preserve">
<style type="text/css">
	.st0{fill:#FFFFFF;}
	.st1{fill:#2668BF;}
</style>
<g>
	<rect y="0" class="st0" width="256" height="256"/>
</g>
<g>
	<path class="st1" d="M244.9,75c-3.6,2-32.2,16.5-37.9,19.3c-5.7,2.8-20-10.4-23.9-16.6c-3.8-6.2-4.2-17.7-4.2-17.7
		c-1.8-12.3,6.9-15.3,6.9-15.3l34.1-18C231,21.4,167,2.9,149.9,41.6c-5.3,12.1-0.6,24.4-5.6,34.6C132.9,99.1,123.6,110,91,134.3
		c-9.5,7.1-18,9.8-30.8,10l0,0c-22,0.7-41.2,16.7-45,39.2c-4.3,25.6,13,49.9,38.6,54.2c25.6,4.3,49.9-13,54.2-38.6
		c0.1-0.8,0.3-1.7,0.4-2.5l0.1,0.1c0.7-11.8,3.3-19,8.4-27.1c21.8-35,48.8-51.7,70.8-46.4c16.3,4,29.4-1.3,38.5-9.6
		c8.2-7.4,18.9-27.6,21.7-33.8C250.7,73.7,248.4,72.9,244.9,75z M84.6,214.5L53,222.8l-22.9-23.2l8.7-31.5l31.6-8.2l22.9,23.2
		L84.6,214.5z"/>
</g>
</svg>
