<?xml version="1.0" encoding="utf-8"?>
<!-- Generator: Adobe Illustrator 21.1.0, SVG Export Plug-In . SVG Version: 6.00 Build 0)  -->
<svg version="1.1" id="Layer_1" xmlns="http://www.w3.org/2000/svg" xmlns:xlink="http://www.w3.org/1999/xlink" x="0px" y="0px"
	 viewBox="0 0 256 256" style="enable-background:new 0 0 256 256;" xml:space="preserve">
<style type="text/css">
	.st0{fill:#FFFFFF;}
	.st1{fill:#2668BF;}
</style>
<g>
	<rect y="0" class="st0" width="256" height="256"/>
</g>
<path class="st1" d="M229.5,71.7c-22.5-33.5-68.1-42.5-101.7-20c-29.6,19.8-40.1,57.6-26.7,89.3l-20.5,13.8
	c-4.4-1.6-9.6-1.2-13.8,1.6l-48.9,32.8c-7,4.7-8.8,14.2-4.2,21.2l5.6,8.4c4.7,7,14.2,8.8,21.2,4.2L89.5,190
	c4.2-2.8,6.5-7.4,6.7-12.1l20.5-13.8c24.2,24.4,63.2,29,92.8,9.2C243,150.8,252,105.2,229.5,71.7z M198.3,156.8
	c-24.4,16.4-57.6,9.8-74-14.6c-16.4-24.4-9.8-57.6,14.6-74c24.4-16.4,57.6-9.8,74,14.6C229.3,107.2,222.8,140.4,198.3,156.8z"/>
</svg>
