<?xml version="1.0" encoding="utf-8"?>
<!-- Generator: Adobe Illustrator 21.1.0, SVG Export Plug-In . SVG Version: 6.00 Build 0)  -->
<svg version="1.1" id="Layer_1" xmlns="http://www.w3.org/2000/svg" xmlns:xlink="http://www.w3.org/1999/xlink" x="0px" y="0px"
	 viewBox="0 0 256 256" style="enable-background:new 0 0 256 256;" xml:space="preserve">
<style type="text/css">
	.st0{fill:#FFFFFF;}
	.st1{fill:#2668BF;}
	.st2{fill:none;stroke:#2668BF;stroke-width:15;stroke-miterlimit:10;}
</style>
<g>
	<rect y="0" class="st0" width="256" height="256"/>
</g>
<g>
	<path class="st1" d="M95.7,56.4c6.4-2.6,9.7-7.9,9.7-15.8c0-13.3-7.8-19.2-25.3-19.2H48.8v73.6h33.5c15.9,0,25.5-7.9,25.5-21
		C107.8,65.4,103.2,58.9,95.7,56.4z M60.5,32h19.1c13.1,0,14.2,5,14.2,9.8c0,6.4-3.6,9.6-11.1,9.6H60.5V32z M81.1,84.5H60.5V62h20.1
		c10.1,0,15,3.7,15,11.5C95.6,78.6,93.9,84.5,81.1,84.5z M192.8,80h-0.2l-6.5-29.2h-16l10.2,44.3h23.2L215,50.8h-16.3L192.8,80z
		 M141.5,80h-0.2l-5.4-29.2h-18.1L129,95.1h23.5l10.9-44.3h-14.5L141.5,80z M179.5,21.4h-23.1l-5,19.6h32.5L179.5,21.4z M130.4,21.4
		h-20.1l5,19.6h18.7L130.4,21.4z M204.6,21.4l-3.9,19.6h16.9l5.1-19.6H204.6z"/>
</g>
<rect x="53.7" y="122.1" class="st2" width="164.7" height="112.7"/>
<polygon class="st1" points="148.3,164.1 152.4,122.1 119.6,122.1 123.8,164.1 82.6,152.3 136,211.9 189.4,152.3 "/>
</svg>
